/* XPM */
static char * searchcombo_xpm[] = {
"21 21 6 1",
" 	c None",
".	c #000000",
"+	c #FFFFFF",
"@	c #333333",
"#	c #DEDEDE",
"$	c #7B7B7B",
"                     ",
".....................",
".+++++@+++++++.#####.",
".+$$$+@+++++++..###..",
".+++++@+++++++...#...",
".....................",
".+++++++++++++.++++++",
".+++++++++++++.     .",
".+$$$$$$$$$+++.  .  .",
".+++++++++++++. ... .",
".+++++++++++++.     .",
".+$$$$$$$$$$$+.......",
".+++++++++++++.+++++.",
".+++++++++++++.+    .",
".+$$$$$$$$$$++.$$$$$.",
".+++++++++++++.+++++.",
".+++++++++++++.     .",
".+$$$$$$$$$$$+. ... .",
".+++++++++++++.  .  .",
".+++++++++++++.     .",
"....................."};
