/* XPM */
static char * tclist_xpm[] = {
"21 21 7 1",
" 	c None",
".	c #000000",
"+	c #DEDEDE",
"@	c #FFFFFF",
"#	c #00FF00",
"$	c #999999",
"%	c #FF0000",
".....................",
".++++++.++++++.+++++.",
".++++++.++++++.+++++.",
".++++++.++++++.+++++.",
".....................",
".@####@.@@@@@@.@@@@@.",
".@#..#@.@$$@$@.@$@@@.",
".@####@.@@@@@@.@@@@@.",
".....................",
".@@@@@@.@%%.%@.@@@@@.",
".@@@@@@.@%...@.@$$@@.",
".@@@@@@.@%%.%@.@@@@@.",
".....................",
".@@@@@@.@@@@@@.@@@@@.",
".@@@@@@.@$@$$@.@$$@@.",
".@@@@@@.@@@@@@.@@@@@.",
".....................",
".@@@@@@.@@@@@@.@@@@@.",
".@@@@@@.@$$$@@.@$$@@.",
".@@@@@@.@@@@@@.@@@@@.",
"....................."};
